# xmcd
#
# Track frame offsets:
#	150
#	10675
#	20505
#	31993
#	47145
#	60440
#	73405
#	86655
#	98650
#	111695
#	125450
#	135078
#	145618
#	159628
#	169895
#	181180
#	193050
#	204653
#	218700
#	228395
#	240448
#	253853
#
# Disc length: 3605
#
# Revision: 4
# Processed by: cddbd v1.5.1PL0 Copyright (c) Steve Scherf et al.
# Submitted via: ExactAudioCopy v0.90b4
# Normalized: r3:TDELIM( - ),TSWAP
#
DISCID=330e1316
DTITLE=Time Life Music - Contemporary Country - The Early '70s - Pure Gold
DYEAR=1900
DGENRE=Country
TTITLE0=Loretta Lynn - You're Lookin' At Country
TTITLE1=Mel Tillis - I Ain't Never
TTITLE2=Bobby Bare - How I Got To Memphis
TTITLE3=Merle Haggard - It's Not Love (But It's Not Bad)
TTITLE4=Conway Twitty - How Much More Can She Stand
TTITLE5=Mel Street - Lovin' On Back Streets
TTITLE6=Johnny Paycheck - She's All I Got
TTITLE7=Conway Twitty And Loretta Lynn - After The Fire Is Gone
TTITLE8=Cal Smith - The Lord Knows I'm Drinking
TTITLE9=George Jones - A Good Year For The Roses
TTITLE10=Freddie Hart - My Hang-Up Is You
TTITLE11=Buck Owens - Rollin' In My Sweet Baby's Arms
TTITLE12=Dolly Parton - Coat Of Many Colors
TTITLE13=Charley Pride - Is Anybody Goin' To San Antone
TTITLE14=Joe Stampley - Soul Song
TTITLE15=Johnny Cash - Flesh And Blood
TTITLE16=Jerry Lee Lewis - Think About It Darlin'
TTITLE17=Tanya Tucker - What's Your Mama's Name
TTITLE18=Johnny Rodriguez - Ridin' My Thumb To Mexico
TTITLE19=Tammy Wynette - 'Til I Get It Right
TTITLE20=Faron Young - It's Four In The Morning
TTITLE21=Ray Price - I Won't Mention It Again
EXTD=
EXTT0=Loretta Lynn
EXTT1=Mel Tillis
EXTT2=Bobby Bare
EXTT3=Merle Haggard
EXTT4=Conway Twitty
EXTT5=Mel Street
EXTT6=Johnny Paycheck
EXTT7=Conway Twitty And Loretta Lynn
EXTT8=Cal Smith
EXTT9=George Jones
EXTT10=Freddie Hart
EXTT11=Buck Owens
EXTT12=Dolly Parton
EXTT13=Charlie Pride
EXTT14=Joe Stampley
EXTT15=Johnny Cash
EXTT16=Jerry Lee Lewis
EXTT17=Tanya Tucker
EXTT18=Johnny Rodriguez
EXTT19=Tammy Wynette
EXTT20=Faron Young
EXTT21=Ray Price
PLAYORDER=
